<svg width="628" height="628" viewBox="0 0 628 628" fill="none" xmlns="http://www.w3.org/2000/svg">
<path fill-rule="evenodd" clip-rule="evenodd" d="M314 627C486.865 627 627 486.865 627 314C627 141.135 486.865 1 314 1C141.135 1 1 141.135 1 314C1 486.865 141.135 627 314 627ZM314 628C487.417 628 628 487.417 628 314C628 140.583 487.417 0 314 0C140.583 0 0 140.583 0 314C0 487.417 140.583 628 314 628ZM563.005 314C563.005 451.522 451.522 563.005 314 563.005C176.478 563.005 64.9946 451.522 64.9946 314C64.9946 176.478 176.478 64.9946 314 64.9946C451.522 64.9946 563.005 176.478 563.005 314ZM564.005 314C564.005 452.074 452.074 564.005 314 564.005C175.926 564.005 63.9946 452.074 63.9946 314C63.9946 175.926 175.926 63.9946 314 63.9946C452.074 63.9946 564.005 175.926 564.005 314ZM314 504.984C419.477 504.984 504.984 419.477 504.984 314C504.984 208.523 419.477 123.016 314 123.016C208.523 123.016 123.016 208.523 123.016 314C123.016 419.477 208.523 504.984 314 504.984ZM314 505.984C420.03 505.984 505.984 420.03 505.984 314C505.984 207.97 420.03 122.016 314 122.016C207.97 122.016 122.016 207.97 122.016 314C122.016 420.03 207.97 505.984 314 505.984ZM314 446.962C387.433 446.962 446.962 387.433 446.962 314C446.962 240.567 387.433 181.038 314 181.038C240.567 181.038 181.038 240.567 181.038 314C181.038 387.433 240.567 446.962 314 446.962ZM314 447.962C387.985 447.962 447.962 387.985 447.962 314C447.962 240.015 387.985 180.038 314 180.038C240.015 180.038 180.038 240.015 180.038 314C180.038 387.985 240.015 447.962 314 447.962ZM382.114 314C382.114 351.618 351.618 382.114 314 382.114C276.382 382.114 245.886 351.618 245.886 314C245.886 276.382 276.382 245.886 314 245.886C351.618 245.886 382.114 276.382 382.114 314ZM383.114 314C383.114 352.171 352.171 383.114 314 383.114C275.829 383.114 244.886 352.171 244.886 314C244.886 275.829 275.829 244.886 314 244.886C352.171 244.886 383.114 275.829 383.114 314Z" fill="url(#paint0_radial_346_429)" fill-opacity="0.4"/>
<defs>
<radialGradient id="paint0_radial_346_429" cx="0" cy="0" r="1" gradientUnits="userSpaceOnUse" gradientTransform="translate(314 314) rotate(90) scale(354 352.065)">
<stop stop-color="#DBFE52"/>
<stop offset="1" stop-color="#DBFE52" stop-opacity="0"/>
</radialGradient>
</defs>
</svg>
